<svg xmlns="http://www.w3.org/2000/svg" viewBox="0 0 32 32" width="32" height="32">
  <defs>
    <style>
      .link-icon { fill: #4a90e2; }
      .background { fill: #ffffff; }
    </style>
  </defs>
  <circle cx="16" cy="16" r="15" class="background" stroke="#4a90e2" stroke-width="2"/>
  <path class="link-icon" d="M10 12c0-1.1.9-2 2-2h2c1.1 0 2 .9 2 2v8c0 1.1-.9 2-2 2h-2c-1.1 0-2-.9-2-2v-8zm6 0c0-1.1.9-2 2-2h2c1.1 0 2 .9 2 2v8c0 1.1-.9 2-2 2h-2c-1.1 0-2-.9-2-2v-8z"/>
  <path class="link-icon" d="M12 16h8" stroke="#4a90e2" stroke-width="2" stroke-linecap="round"/>
</svg> 